<svg width="32" height="32" viewBox="0 0 32 32" fill="none" xmlns="http://www.w3.org/2000/svg">
<path d="M20.6063 19.2812C20.5543 19.3336 20.8403 20.3922 20.8843 20.5623C21.584 23.2708 23.3546 27.1883 20.2404 29.0617C18.2081 30.2842 13.5549 30.2937 11.5861 28.9306C8.4239 26.7412 10.9021 22.1823 11.4715 19.2815C9.38076 19.0598 7.02513 18.7711 5.08979 17.9232C1.09739 16.1741 2.01882 12.4417 3.74977 9.28919C9.41033 -1.02003 24.8352 -0.0210678 29.0712 10.9532C30.9642 15.8573 28.899 17.7373 24.272 18.7621C23.0785 19.0265 21.8248 19.2208 20.6063 19.2812ZM11.6359 17.8042V16.847C11.6359 16.6818 11.512 16.2248 11.4677 16.0306C11.2851 15.2297 10.9436 15.1792 12.0088 14.9773C14.0523 14.5899 17.5097 14.6342 19.5876 14.9122C19.8031 14.941 20.6473 15.0759 20.7454 15.233C20.7712 15.2743 20.7787 15.3161 20.7704 15.3637C20.4913 16.1456 20.3496 16.9728 20.3875 17.8045C21.6041 17.7293 22.8852 17.5537 24.064 17.2413C24.829 17.0386 27.3125 16.2729 25.9089 15.2641C24.2423 14.0664 19.5972 13.6084 17.5187 13.5351C14.901 13.4428 8.02957 13.6372 6.03039 15.344C5.69886 15.627 5.54435 15.7927 5.83799 16.1903C6.38978 16.9374 8.37588 17.3441 9.27366 17.5135C9.56818 17.5691 11.5452 17.895 11.6359 17.8042ZM14.8905 25.0793H17.1878C17.3081 25.0793 17.3615 24.7221 17.3237 24.6153L16.7231 21.5259C18.7278 20.6678 18.0636 17.7061 15.8179 17.8566C13.8517 17.9883 13.4432 20.8528 15.2994 21.5273L14.6965 24.7274C14.6532 24.8319 14.811 25.0573 14.8904 25.0793H14.8905Z" fill="#00C950"/>
</svg>
